<svg width="48" height="48" viewBox="0 0 48 48" fill="none" xmlns="http://www.w3.org/2000/svg">
<g clip-path="url(#clip0_78_8669)">
<path fill-rule="evenodd" clip-rule="evenodd" d="M25.1428 2C25.1428 0.895431 24.2474 0 23.1428 0H22.5714C21.4668 0 20.5714 0.89543 20.5714 2V4.85712C20.5714 5.96169 19.676 6.85712 18.5714 6.85712H4.28571C3.18114 6.85712 2.28571 7.75254 2.28571 8.85711V39.1428C2.28571 40.2474 3.18114 41.1428 4.28571 41.1428H18.5714C19.676 41.1428 20.5714 42.0383 20.5714 43.1428V46C20.5714 47.1046 21.4668 48 22.5714 48H23.1428C24.2474 48 25.1428 47.1046 25.1428 46V43.1428C25.1428 42.0383 26.0383 41.1428 27.1428 41.1428H43.7143C44.8188 41.1428 45.7143 40.2474 45.7143 39.1428V8.85712C45.7143 7.75255 44.8188 6.85712 43.7143 6.85712H27.1428C26.0383 6.85712 25.1428 5.96169 25.1428 4.85712V2ZM27.1428 36.8571C26.0383 36.8571 25.1428 35.9617 25.1428 34.8571V13.1428C25.1428 12.0383 26.0383 11.1428 27.1428 11.1428H39.3714C40.476 11.1428 41.3714 12.0383 41.3714 13.1428V34.8571C41.3714 35.9617 40.476 36.8571 39.3714 36.8571H27.1428Z" fill="url(#paint0_linear_78_8669)"/>
</g>
<defs>
<linearGradient id="paint0_linear_78_8669" x1="2.2857" y1="-5.73727" x2="-10.2466" y2="41.6945" gradientUnits="userSpaceOnUse">
<stop stop-color="#F2F8FF"/>
<stop offset="0.340066" stop-color="#ECF6FE"/>
<stop offset="0.511067" stop-color="#E4EDF5"/>
<stop offset="1" stop-color="#5A7996"/>
</linearGradient>
<clipPath id="clip0_78_8669">
<rect width="48" height="48" fill="white"/>
</clipPath>
</defs>
</svg>
