<svg width="64" height="64" viewBox="0 0 64 64" fill="none" xmlns="http://www.w3.org/2000/svg">
<path d="M28.709 23.0589L31.1481 17.9483C31.2247 17.7876 31.3454 17.6519 31.4962 17.5569C31.647 17.4619 31.8217 17.4115 32 17.4115C32.1783 17.4115 32.353 17.4619 32.5038 17.5569C32.6546 17.6519 32.7753 17.7876 32.8519 17.9483L35.2906 23.0589H54.6415C55.267 23.0589 55.8669 23.3068 56.3092 23.748C56.7515 24.1893 57 24.7878 57 25.4118V53.6471C57 54.2711 56.7515 54.8696 56.3092 55.3108C55.8669 55.7521 55.267 56 54.6415 56H9.35849C8.73298 56 8.13309 55.7521 7.69079 55.3108C7.24848 54.8696 7 54.2711 7 53.6471V25.4118C7 24.7878 7.24848 24.1893 7.69079 23.748C8.13309 23.3068 8.73298 23.0589 9.35849 23.0589H28.709ZM21.1509 44.7059C24.0165 44.7059 26.3396 42.3883 26.3396 39.5294C26.3396 36.6706 24.0165 34.353 21.1509 34.353C18.2854 34.353 15.9623 36.6706 15.9623 39.5294C15.9623 42.3883 18.2854 44.7059 21.1509 44.7059ZM39.3113 34.353C38.8735 34.353 38.4535 34.5265 38.1439 34.8354C37.8343 35.1443 37.6604 35.5632 37.6604 36V43.0588C37.6604 43.4957 37.8343 43.9146 38.1439 44.2235C38.4535 44.5324 38.8735 44.7059 39.3113 44.7059C39.7492 44.7059 40.1691 44.5324 40.4787 44.2235C40.7883 43.9146 40.9623 43.4957 40.9623 43.0588V36C40.9623 35.5632 40.7883 35.1443 40.4787 34.8354C40.1691 34.5265 39.7492 34.353 39.3113 34.353ZM45.9151 34.353C45.4772 34.353 45.0573 34.5265 44.7477 34.8354C44.4381 35.1443 44.2642 35.5632 44.2642 36V43.0588C44.2642 43.4957 44.4381 43.9146 44.7477 44.2235C45.0573 44.5324 45.4772 44.7059 45.9151 44.7059C46.353 44.7059 46.7729 44.5324 47.0825 44.2235C47.3921 43.9146 47.566 43.4957 47.566 43.0588V36C47.566 35.7837 47.5233 35.5696 47.4404 35.3697C47.3574 35.1699 47.2358 34.9883 47.0825 34.8354C46.9292 34.6824 46.7472 34.5611 46.5469 34.4783C46.3466 34.3956 46.1319 34.353 45.9151 34.353ZM22.3005 15.2306C21.7552 15.5234 21.1163 15.5905 20.5219 15.4174C19.9275 15.2443 19.4251 14.8449 19.1233 14.3054C18.8215 13.766 18.7445 13.1297 18.9089 12.5341C19.0733 11.9385 19.4658 11.4313 20.0019 11.1219C27.4547 6.97183 35.6434 6.97183 44.3245 11.0476C44.6093 11.1763 44.8656 11.3602 45.0785 11.5885C45.2913 11.8169 45.4566 12.0852 45.5646 12.3779C45.6726 12.6706 45.7212 12.9818 45.7076 13.2933C45.694 13.6049 45.6185 13.9107 45.4853 14.1929C45.3522 14.4751 45.1642 14.728 44.9322 14.9371C44.7002 15.1461 44.4288 15.307 44.1339 15.4105C43.839 15.514 43.5264 15.558 43.2144 15.5399C42.9023 15.5217 42.5969 15.4419 42.316 15.305C34.9599 11.8514 28.3693 11.8514 22.3005 15.2306Z" fill="url(#paint0_linear_122_3256)"/>
<defs>
<linearGradient id="paint0_linear_122_3256" x1="9.43346" y1="2.26273" x2="-2.68411" y2="49.925" gradientUnits="userSpaceOnUse">
<stop stop-color="#F2F8FF"/>
<stop offset="0.340066" stop-color="#ECF6FE"/>
<stop offset="0.511067" stop-color="#E4EDF5"/>
<stop offset="1" stop-color="#5A7996"/>
</linearGradient>
</defs>
</svg>
